<svg width="13" height="17" viewBox="0 0 13 17" fill="none" xmlns="http://www.w3.org/2000/svg">
<path d="M11.366 5.71299C11.2567 4.01342 9.811 3.39942 7.9695 3.17928L8.04335 0.828452L6.61312 0.784135L6.54068 3.073C6.16473 3.06055 5.78073 3.05643 5.3975 3.05213L5.47082 0.748274L4.04042 0.703172L3.9664 3.05322C3.65648 3.04952 3.35161 3.04637 3.05514 3.03647L3.05519 3.02906L1.0817 2.96654L1.03386 4.49454C1.03386 4.49454 2.09148 4.5076 2.07333 4.52633C2.65284 4.54491 2.83042 4.88717 2.87642 5.17977L2.79267 7.85749C2.83241 7.85876 2.88416 7.86237 2.94373 7.8717L2.79235 7.86742L2.67436 11.6189C2.64281 11.8 2.52654 12.0874 2.12114 12.0755C2.13952 12.0921 1.08149 12.043 1.08149 12.043L0.743465 13.7422L2.60593 13.8008C2.95207 13.8123 3.29277 13.8291 3.62679 13.8415L3.55288 16.2187L4.98232 16.2632L5.05617 13.9123C5.44846 13.932 5.82822 13.9469 6.19911 13.9588L6.12479 16.2998L7.55503 16.3441L7.62995 13.9717C10.0401 13.9094 11.7424 13.3564 12.0226 11.104C12.2488 9.29081 11.4187 8.45164 10.0635 8.08116C10.9069 7.68507 11.4483 6.95717 11.366 5.71299ZM9.20389 10.7334C9.14983 12.5102 6.11337 12.2122 5.14344 12.1826L5.2435 9.03276C6.21377 9.06388 9.26293 8.8807 9.20389 10.7334ZM8.67847 6.26852C8.62759 7.88515 6.09642 7.61598 5.28936 7.59068L5.37902 4.73493C6.18607 4.76023 8.73158 4.58234 8.67847 6.26852Z" fill="#DB953C"/>
</svg>
