<svg width="15" height="15" viewBox="0 0 15 15" fill="none" xmlns="http://www.w3.org/2000/svg">
<path d="M13.9753 13.172C14.395 13.5964 14.3272 14.2267 13.8234 14.5801C13.6103 14.7301 13.3414 14.8122 13.0637 14.8121C12.7234 14.8121 12.3857 14.6895 12.1512 14.4521L7.12489 9.34702L2.10028 14.4251C1.86545 14.6624 1.52805 14.7851 1.18776 14.7851C0.910086 14.7852 0.641211 14.7031 0.428129 14.5532C-0.0758163 14.1998 -0.143726 13.5694 0.276203 13.1451L5.57913 7.78571L0.275313 2.45329C-0.144506 2.02891 -0.0766698 1.3986 0.427387 1.04517C0.93059 0.690792 1.67909 0.747792 2.09954 1.1731L7.12489 6.25015L12.1495 1.17204C12.5688 0.747667 13.3177 0.690167 13.8216 1.0441C14.3256 1.39754 14.3935 2.02785 13.9736 2.45223L8.67064 7.81159L13.9753 13.172Z" fill="white"/>
</svg>
